#!OML:ASF F:\VICON\USERDATA\INSTALL\rory3\rory3.ASF
:FULLY-SPECIFIED
:DEGREES
176
root 15.1028 18.0638 0.338683 -4.66996 2.86419 3.58623
lowerback 11.0062 1.39934 -2.25394
upperback 1.38845 1.55716 -0.627965
thorax -4.76208 0.805069 0.381722
lowerneck -21.761 -7.46226 -13.5081
upperneck 27.6051 -9.37742 10.8951
head 14.3388 -4.05114 4.91321
rclavicle 1.90958e-014 -8.54774e-015
rhumerus -34.246 -13.3846 -80.976
rradius 29.3972
rwrist 7.75223
rhand -13.8669 9.87579
rfingers 7.12502
rthumb 12.2575 -19.745
lclavicle 1.90958e-014 -8.54774e-015
lhumerus -35.5993 6.19125 81.7334
lradius 27.7416
lwrist -11.1375
lhand -17.2925 26.5099
lfingers 7.12502
lthumb 8.95314 56.2999
rfemur -8.2896 -5.7559 18.3629
rtibia 65.7063
rfoot 6.20074 -7.43943
rtoes 19.638
lfemur -2.37193 -2.24753 -24.2802
ltibia 8.79353
lfoot 1.8363 -8.72377
ltoes -4.35202
177
root 15.1136 18.0694 0.466436 -4.72634 2.88485 3.73503
lowerback 11.0115 1.38134 -2.40486
upperback 1.3205 1.51415 -0.62014
thorax -4.83931 0.787687 0.480013
lowerneck -21.4367 -7.38859 -13.552
upperneck 27.5824 -9.27628 10.84
head 14.242 -4.02991 4.92135
rclavicle -1.2424e-016 6.36111e-015
rhumerus -34.5671 -13.4315 -80.8486
rradius 29.414
rwrist 8.03209
rhand -13.9394 10.2505
rfingers 7.12502
rthumb 12.1875 -19.3745
lclavicle -1.2424e-016 6.36111e-015
lhumerus -35.6963 6.43238 81.5677
lradius 28.3252
lwrist -11.1386
lhand -17.5549 25.1651
lfingers 7.12502
lthumb 8.69993 54.9658
rfemur -9.28227 -5.91157 18.1775
rtibia 66.1723
rfoot 5.23618 -7.04921
rtoes 16.1844
lfemur -2.18032 -2.36891 -24.5392
ltibia 9.4264
lfoot 1.14984 -8.4281
ltoes -4.5617
178
root 15.1203 18.0644 0.592235 -4.80176 2.92075 3.8306
lowerback 11.1319 1.34078 -2.57619
upperback 1.20094 1.43551 -0.577281
thorax -5.03498 0.754989 0.628586
lowerneck -21.2198 -7.28495 -13.552
upperneck 27.7052 -9.1408 10.767
head 14.2222 -3.98888 4.92634
rclavicle -1.3418e-014 2.38542e-015
rhumerus -34.9007 -13.6668 -80.6573
rradius 29.3601
rwrist 8.44993
rhand -14.1697 10.5853
rfingers 7.12502
rthumb 11.9654 -19.0527
lclavicle -1.3418e-014 2.38542e-015
lhumerus -35.9398 6.697 81.4197
lradius 28.9659
lwrist -10.9632
lhand -16.3029 28.1961
lfingers 7.12502
lthumb 9.90792 57.943
rfemur -10.2179 -6.01451 18.0998
rtibia 66.4988
rfoot 4.55291 -6.45212
rtoes 13.3719
lfemur -2.1281 -2.50672 -24.713
ltibia 10.3772
lfoot 0.310844 -8.10301
ltoes -5.12954
179
root 15.1254 18.0611 0.714733 -4.88939 2.92879 3.75188
lowerback 11.1432 1.29251 -2.55401
upperback 1.23957 1.37796 -0.511683
thorax -5.00002 0.7262 0.693858
lowerneck -21.3423 -7.24213 -13.4519
upperneck 27.7882 -9.06684 10.6526
head 14.2592 -3.95787 4.87794
rclavicle 1.04735e-014 -1.15295e-014
rhumerus -34.9474 -13.8236 -80.5955
rradius 29.3316
rwrist 8.60399
rhand -14.125 10.4715
rfingers 7.12502
rthumb 12.0086 -19.164
lclavicle 1.04735e-014 -1.15295e-014
lhumerus -35.8181 6.77458 81.3461
lradius 29.4074
lwrist -10.1675
lhand -15.3356 33.8125
lfingers 7.12502
lthumb 10.8411 63.5126
rfemur -11.1405 -6.03485 18.2285
rtibia 66.6647
rfoot 3.50885 -6.31268
rtoes 12.3385
lfemur -2.08036 -2.63169 -24.6547
ltibia 11.3293
lfoot -0.273556 -7.7448
ltoes -2.78358
180
root 15.1309 18.0557 0.838872 -4.97817 2.91185 3.74351
lowerback 11.0261 1.25663 -2.55261
upperback 1.35729 1.33828 -0.478267
thorax -4.81083 0.704397 0.738058
lowerneck -21.5038 -7.2227 -13.341
upperneck 27.8174 -9.00447 10.4898
head 14.2795 -3.93544 4.80194
rclavicle -1.84746e-014 2.16675e-014
rhumerus -34.8434 -13.8325 -80.6113
rradius 29.2185
rwrist 8.62776
rhand -14.0977 10.1292
rfingers 7.12502
rthumb 12.0349 -19.5048
lclavicle -1.84746e-014 2.16675e-014
lhumerus -35.5788 6.58448 81.4241
lradius 29.8022
lwrist -8.74038
lhand -16.7124 29.5449
lfingers 7.12502
lthumb 9.51289 59.3102
rfemur -11.9506 -6.10143 18.2371
rtibia 66.6579
rfoot 2.21074 -6.30841
rtoes 14.0571
lfemur -1.98801 -2.722 -24.6668
ltibia 12.2767
lfoot -1.09516 -7.32379
ltoes -1.59099
181
root 15.1333 18.0394 0.960815 -4.97433 3.00785 3.80429
lowerback 11.0484 1.18057 -2.68158
upperback 1.26945 1.22195 -0.429036
thorax -4.91526 0.65158 0.878161
lowerneck -21.3997 -7.15554 -13.4388
upperneck 27.868 -8.88799 10.4907
head 14.2668 -3.89968 4.84632
rclavicle 2.5196e-014 3.37934e-015
rhumerus -35.0373 -13.83 -80.523
rradius 29.1718
rwrist 8.7352
rhand -14.1709 10.1118
rfingers 7.12502
rthumb 11.9643 -19.5262
lclavicle 2.5196e-014 3.37934e-015
lhumerus -35.6893 6.31848 81.5175
lradius 30.3353
lwrist -7.62851
lhand -17.1087 28.1988
lfingers 7.12502
lthumb 9.13048 57.9812
rfemur -12.8509 -6.20121 18.1825
rtibia 66.5563
rfoot 0.891012 -5.85898
rtoes 14.7034
lfemur -1.94545 -2.6716 -24.7582
ltibia 13.1983
lfoot -2.32478 -7.07477
ltoes -4.31355
182
root 15.1373 18.026 1.07625 -4.91499 3.1037 3.89293
lowerback 11.1398 1.09497 -2.8229
upperback 1.13985 1.08798 -0.380791
thorax -5.10101 0.591866 1.02568
lowerneck -21.3273 -7.06381 -13.4808
upperneck 27.9106 -8.73689 10.4497
head 14.2457 -3.8474 4.86963
rclavicle 5.34234e-016 -3.97569e-015
rhumerus -35.2789 -13.9239 -80.3755
rradius 29.2357
rwrist 8.88063
rhand -14.0768 10.0621
rfingers 7.12502
rthumb 12.055 -19.5707
lclavicle 5.34234e-016 -3.97569e-015
lhumerus -35.7195 6.19676 81.5515
lradius 30.8944
lwrist -7.00748
lhand -16.8746 28.787
lfingers 7.12502
lthumb 9.35639 58.5594
rfemur -13.9078 -6.14831 18.1014
rtibia 66.3498
rfoot -0.547447 -5.26167
rtoes 14.7018
lfemur -1.99785 -2.48532 -24.8877
ltibia 14.0116
lfoot -3.19783 -7.18719
ltoes -6.2626
183
root 15.1441 18.0115 1.18806 -4.89411 3.04614 4.03889
lowerback 11.0699 1.09205 -2.918
upperback 1.19663 1.07447 -0.41097
thorax -5.00306 0.585269 1.05148
lowerneck -21.4478 -7.04739 -13.4311
upperneck 27.8484 -8.72124 10.4861
head 14.2411 -3.82642 4.87579
rclavicle -4.01297e-015 -3.97569e-015
rhumerus -35.2325 -14.0193 -80.3777
rradius 29.2716
rwrist 8.66681
rhand -13.9754 10.0579
rfingers 7.12502
rthumb 12.1528 -19.5691
lclavicle -4.01297e-015 -3.97569e-015
lhumerus -35.4402 6.13415 81.5426
lradius 31.4483
lwrist -6.53261
lhand -16.9472 28.9537
lfingers 7.12502
lthumb 9.28626 58.7292
rfemur -14.9396 -6.0492 17.9568
rtibia 66.0309
rfoot -1.85868 -4.80717
rtoes 13.1296
lfemur -1.97681 -2.26926 -25.0886
ltibia 14.6608
lfoot -3.42569 -7.33514
ltoes -4.55654
184
root 15.1484 17.9943 1.30363 -4.932 2.98694 4.15145
lowerback 10.9968 1.06804 -2.99227
upperback 1.29032 1.03566 -0.459386
thorax -4.86286 0.564679 1.05076
lowerneck -21.6437 -6.99744 -13.2552
upperneck 27.9002 -8.6641 10.406
head 14.2813 -3.78775 4.82348
rclavicle 1.23371e-014 -5.96354e-015
rhumerus -35.1366 -13.9214 -80.5583
rradius 29.3768
rwrist 8.18997
rhand -14.0534 9.82662
rfingers 7.12502
rthumb 12.0776 -19.8048
lclavicle 1.23371e-014 -5.96354e-015
lhumerus -35.2865 6.01089 81.4586
lradius 32.1448
lwrist -6.00559
lhand -16.7797 28.1693
lfingers 7.12502
lthumb 9.44792 57.9375
rfemur -15.7988 -5.9905 17.8689
rtibia 65.5465
rfoot -2.95325 -4.65848
rtoes 11.2595
lfemur -1.78726 -2.20824 -25.2458
ltibia 15.222
lfoot -3.85596 -7.20774
ltoes -2.52575
185
root 15.1526 17.982 1.42646 -4.96314 3.0583 4.35184
lowerback 11.0275 1.00318 -3.20939
upperback 1.26081 0.920737 -0.474578
thorax -4.90938 0.512911 1.17382
lowerneck -21.7818 -6.95131 -13.1761
upperneck 28.0844 -8.57295 10.2569
head 14.3637 -3.75707 4.77162
rclavicle 5.23052e-015 -8.74653e-015
rhumerus -35.2638 -13.88 -80.5497
rradius 29.4659
rwrist 7.83421
rhand -14.203 9.67339
rfingers 7.12502
rthumb 11.9334 -19.9665
lclavicle 5.23052e-015 -8.74653e-015
lhumerus -35.3091 5.75162 81.4762
lradius 32.7822
lwrist -5.45793
lhand -16.5036 27.3582
lfingers 7.12502
lthumb 9.71428 57.1142
rfemur -16.5297 -5.98343 17.6266
rtibia 64.8901
rfoot -4.14522 -4.69847
rtoes 10.6381
lfemur -1.62974 -2.15829 -25.506
ltibia 15.9408
lfoot -4.66937 -7.09187
ltoes -1.93765
186
root 15.153 17.9667 1.54342 -4.97157 3.26415 4.6562
lowerback 11.1235 0.912237 -3.57438
upperback 1.19422 0.749277 -0.487539
thorax -5.02969 0.437929 1.39025
lowerneck -21.7722 -6.92245 -13.2612
upperneck 28.1397 -8.52349 10.3113
head 14.3864 -3.739 4.82199
rclavicle -1.72694e-014 1.31198e-014
rhumerus -35.4001 -13.9613 -80.4325
rradius 29.4946
rwrist 7.78726
rhand -14.222 9.66113
rfingers 7.12502
rthumb 11.9151 -19.9798
lclavicle -1.72694e-014 1.31198e-014
lhumerus -35.3879 5.62313 81.5001
lradius 33.4279
lwrist -5.26615
lhand -16.3941 27.2994
lfingers 7.12502
lthumb 9.81994 57.0504
rfemur -17.2328 -6.06383 17.2775
rtibia 64.1025
rfoot -5.30579 -5.0542
rtoes 9.59854
lfemur -1.55598 -2.18594 -25.8694
ltibia 16.7397
lfoot -5.43024 -7.02852
ltoes -3.32973
187
root 15.1473 17.9499 1.65097 -4.93321 3.47356 4.60213
lowerback 11.1402 0.810286 -3.60321
upperback 1.22764 0.614815 -0.407659
thorax -4.99811 0.372159 1.51089
lowerneck -21.9005 -6.91832 -13.3869
upperneck 28.1275 -8.50844 10.4809
head 14.4238 -3.72023 4.91727
rclavicle 7.88927e-015 -1.15295e-014
rhumerus -35.3096 -13.9401 -80.4284
rradius 29.6148
rwrist 7.62234
rhand -14.0089 9.64001
rfingers 7.12502
rthumb 12.1205 -19.9889
lclavicle 7.88927e-015 -1.15295e-014
lhumerus -35.2167 5.43939 81.5801
lradius 34.1005
lwrist -5.20203
lhand -16.3082 27.5295
lfingers 7.12502
lthumb 9.9028 57.2766
rfemur -18.023 -6.10332 17.4268
rtibia 63.2065
rfoot -6.36813 -5.69097
rtoes 9.92464
lfemur -1.62587 -2.3828 -25.7922
ltibia 17.4856
lfoot -5.89219 -6.94228
ltoes -2.53374
188
root 15.1434 17.9327 1.76396 -4.87554 3.56838 4.55326
lowerback 11.1217 0.743679 -3.5695
upperback 1.23775 0.532968 -0.382245
thorax -4.97273 0.330888 1.53129
lowerneck -22.0459 -6.89122 -13.3298
upperneck 28.1555 -8.47495 10.4879
head 14.4592 -3.69465 4.91727
rclavicle -1.22998e-014 1.55052e-014
rhumerus -35.2651 -14.0167 -80.4408
rradius 29.6844
rwrist 7.5686
rhand -13.9644 9.58692
rfingers 7.12502
rthumb 12.1634 -20.0395
lclavicle -1.22998e-014 1.55052e-014
lhumerus -35.0532 5.09101 81.6097
lradius 34.7544
lwrist -5.00411
lhand -16.396 27.6685
lfingers 7.12502
lthumb 9.8181 57.4196
rfemur -18.8118 -6.08847 17.5489
rtibia 62.2344
rfoot -7.52855 -6.2187
rtoes 11.453
lfemur -1.70014 -2.43672 -25.7199
ltibia 18.2213
lfoot -6.39477 -6.74953
ltoes -1.37232
